<?xml version="1.0" standalone="no"?>
<!DOCTYPE svg PUBLIC "-//W3C//DTD SVG 20010904//EN"
 "http://www.w3.org/TR/2001/REC-SVG-20010904/DTD/svg10.dtd">
<svg version="1.0" xmlns="http://www.w3.org/2000/svg"
 width="446.000000pt" height="362.000000pt" viewBox="0 0 446.000000 362.000000"
 preserveAspectRatio="xMidYMid meet">

<g transform="translate(0.000000,362.000000) scale(0.100000,-0.100000)"
fill="#000000" stroke="none">
<path d="M1107 3202 c-70 -70 -127 -131 -127 -135 0 -4 175 -7 389 -7 l389 0
224 -254 c122 -140 224 -253 226 -251 4 3 -21 98 -103 395 -30 107 -65 236
-78 285 l-24 90 -384 3 -384 2 -128 -128z"/>
<path d="M2397 3193 c-21 -76 -66 -244 -102 -373 -36 -129 -64 -241 -62 -249
1 -7 100 98 221 235 l218 249 397 5 396 5 -130 133 -129 132 -386 0 -387 0
-36 -137z"/>
<path d="M1090 2950 c0 -5 35 -65 79 -133 43 -68 83 -133 90 -145 13 -24 8
-51 -74 -477 -25 -132 -71 -368 -101 -525 -30 -157 -56 -293 -58 -302 -4 -17
17 -18 323 -18 l326 0 118 118 c64 64 117 121 117 125 0 4 -106 7 -235 7
l-235 0 0 680 0 680 -175 0 c-107 0 -175 -4 -175 -10z"/>
<path d="M2997 2953 c-4 -3 -7 -309 -7 -680 l0 -673 -230 0 c-126 0 -230 -3
-230 -7 0 -4 53 -61 117 -125 l118 -118 322 0 c194 0 323 4 323 9 0 5 -7 43
-15 83 -9 40 -45 226 -80 413 -36 187 -83 435 -105 550 -22 116 -40 221 -40
234 0 14 40 89 90 168 50 78 90 145 90 148 0 8 -346 6 -353 -2z"/>
<path d="M1750 2325 l0 -194 33 -38 c35 -42 403 -460 422 -481 10 -11 57 37
244 249 l231 263 0 198 c0 109 -2 198 -4 198 -5 0 -200 -216 -350 -387 -54
-62 -105 -113 -112 -113 -7 0 -19 8 -26 19 -28 40 -422 481 -430 481 -4 0 -8
-88 -8 -195z"/>
<path d="M504 1007 c-2 -7 -3 -94 -2 -192 l3 -180 40 0 40 0 5 80 6 80 21 -45
c12 -25 28 -62 37 -82 14 -36 17 -38 61 -38 l46 0 28 63 c15 34 32 71 37 82 6
14 10 -2 14 -60 l5 -80 43 -3 42 -3 -2 193 -3 193 -50 0 -50 0 -50 -122 c-27
-68 -54 -121 -60 -120 -5 2 -28 50 -51 107 -56 141 -56 140 -109 140 -28 0
-48 -5 -51 -13z"/>
<path d="M1197 983 c-45 -103 -134 -343 -129 -348 3 -3 24 -5 48 -5 40 0 43 2
58 40 l16 40 68 0 69 0 16 -40 c14 -37 18 -40 56 -40 22 0 42 4 45 9 6 9 -119
346 -137 369 -5 6 -28 12 -52 12 -39 0 -43 -3 -58 -37z m78 -139 c21 -50 20
-54 -20 -54 l-34 0 17 45 c9 25 18 45 19 45 2 0 10 -16 18 -36z"/>
<path d="M1588 972 c-1 -26 -2 -114 0 -195 l3 -147 29 0 c54 0 60 7 60 71 0
80 22 79 75 -4 36 -56 43 -62 79 -65 65 -6 71 2 38 50 -56 82 -56 82 -17 121
30 30 35 42 35 80 0 56 -33 108 -80 124 -19 7 -76 12 -127 12 l-91 1 -4 -48z
m190 -48 c24 -17 29 -53 10 -72 -7 -7 -34 -12 -60 -12 l-48 0 0 43 c0 24 3 47
7 50 12 13 68 7 91 -9z"/>
<path d="M2145 1002 c-190 -90 -127 -372 83 -372 55 0 126 32 149 67 13 19 11
22 -21 42 l-34 22 -34 -21 c-65 -39 -135 -15 -158 54 -30 91 80 173 154 115
28 -22 56 -21 89 3 25 18 14 41 -36 74 -55 37 -135 43 -192 16z"/>
<path d="M2535 1008 c-3 -8 -4 -95 -3 -193 l3 -180 40 0 40 0 5 52 c3 29 13
60 22 69 14 14 20 10 64 -48 26 -34 53 -66 59 -70 14 -10 105 -10 105 0 0 5
-31 51 -70 102 -38 51 -70 98 -70 103 0 5 29 42 65 82 36 40 65 77 65 84 0 7
-20 11 -54 11 l-53 0 -64 -72 -64 -72 -5 69 -5 70 -38 3 c-24 2 -39 -1 -42
-10z"/>
<path d="M3130 1004 c-156 -68 -161 -277 -8 -355 73 -37 195 -12 235 48 13 19
11 22 -22 43 l-35 22 -34 -21 c-45 -28 -88 -27 -125 5 -56 47 -50 126 11 164
38 24 89 21 119 -6 20 -18 51 -14 84 10 20 14 20 15 -5 41 -57 61 -146 81
-220 49z"/>
<path d="M3504 1007 c-2 -7 -3 -94 -2 -192 l3 -180 40 0 40 0 5 80 6 80 21
-45 c12 -25 28 -62 37 -82 14 -36 17 -38 61 -38 l46 0 37 82 37 82 5 -79 5
-80 40 0 40 0 0 190 0 190 -50 0 -50 0 -50 -123 c-27 -67 -53 -121 -58 -119
-6 2 -30 52 -55 112 -24 61 -49 116 -54 123 -14 16 -97 16 -104 -1z"/>
<path d="M1024 447 c-3 -8 -3 -56 -2 -108 l3 -94 52 -3 c65 -4 108 17 130 64
24 50 3 112 -47 136 -42 21 -128 24 -136 5z m136 -32 c49 -44 30 -122 -34
-143 -67 -22 -76 -12 -76 77 0 43 3 81 8 85 12 13 82 -1 102 -19z"/>
<path d="M1380 350 l0 -110 75 0 c43 0 75 4 75 10 0 6 -24 10 -54 10 -59 0
-80 14 -74 52 3 20 9 23 56 26 67 4 68 22 2 22 -55 0 -67 11 -56 55 6 23 11
25 67 25 38 0 58 4 54 10 -3 6 -37 10 -76 10 l-69 0 0 -110z"/>
<path d="M1722 444 c-24 -17 -30 -65 -9 -81 6 -6 36 -18 65 -27 59 -20 71 -49
26 -66 -36 -14 -42 -13 -71 16 -17 17 -29 22 -35 16 -7 -7 -2 -19 15 -36 60
-59 181 -5 139 62 -5 7 -33 20 -63 30 -56 18 -72 40 -49 67 17 21 46 19 70 -5
24 -24 40 -26 40 -6 0 22 -40 46 -75 46 -17 0 -41 -7 -53 -16z"/>
<path d="M2020 350 c0 -85 3 -111 13 -107 8 2 12 33 12 107 0 74 -4 105 -12
108 -10 3 -13 -23 -13 -108z"/>
<path d="M2265 451 c-40 -17 -60 -51 -60 -103 0 -43 4 -53 33 -79 35 -32 81
-38 127 -17 21 9 28 9 35 -1 15 -25 30 0 30 48 l0 48 -47 6 c-27 3 -51 3 -56
0 -15 -9 5 -23 34 -23 34 0 37 -12 9 -40 -31 -31 -93 -27 -119 6 -30 39 -27
80 9 116 26 25 36 29 62 24 18 -3 40 -14 50 -23 14 -12 21 -14 30 -5 8 8 2 16
-23 31 -35 22 -79 26 -114 12z"/>
<path d="M2584 447 c-10 -28 1 -200 14 -205 9 -3 12 17 12 77 0 45 3 81 8 81
4 -1 33 -37 65 -81 32 -44 63 -79 70 -76 8 2 12 34 12 105 0 119 -18 141 -23
27 -2 -41 -6 -75 -10 -75 -4 1 -33 37 -64 80 -57 79 -74 93 -84 67z"/>
<path d="M2937 453 c-4 -3 -7 -53 -7 -110 l0 -103 75 0 c43 0 75 4 75 10 0 9
-18 12 -90 14 -21 1 -25 6 -28 39 l-3 37 50 0 c28 0 51 5 51 10 0 6 -22 10
-50 10 l-50 0 0 40 0 40 60 0 c33 0 60 4 60 10 0 11 -133 14 -143 3z"/>
<path d="M3247 453 c-4 -3 -7 -53 -7 -110 0 -79 3 -104 13 -101 6 3 13 23 15
46 3 39 5 42 32 42 24 0 34 -8 56 -45 14 -25 32 -45 40 -45 19 0 18 4 -8 50
l-23 40 23 16 c33 23 28 83 -8 101 -26 13 -122 18 -133 6z m121 -29 c44 -31
12 -74 -55 -74 l-43 0 0 38 c0 21 3 42 7 45 12 13 68 7 91 -9z"/>
</g>
</svg>
